<svg xmlns="http://www.w3.org/2000/svg" id="Capa_2" viewBox="0 0 155.87 223.8"><defs><style>.cls-1{fill:#00c08b;}</style></defs><g id="Capa_1-2"><path class="cls-1" d="M107.8,.95l-43.78,8.83c-2.91,.59-5.35,2.55-6.54,5.27L.48,144.88c-1.33,2.51,.28,5,2.88,4.46l43.59-9.11c.95-.2,1.85,.53,1.85,1.5v79.35c0,3.4,4.48,3.7,6.22,.41l52.79-99.62c1.33-2.51-.28-5-2.88-4.46l-43.59,9.11c-.95,.2-1.85-.53-1.85-1.5v-12.31c0-.73,.51-1.36,1.23-1.5l46.38-9.36c26.74-5.39,48.57-32.35,48.77-60.22h0c.19-27.86-21.32-46.08-48.06-40.69Z"></path></g></svg>